# xmcd CD database file
#
# Track frame offsets:
#	150
#	23700
#	46042
#	57177
#	78840
#
# Disc length: 1283 seconds
#
# Revision: 0
# Processed by: cddbd v1.4PL0 Copyright (c) Steve Scherf et al.
# Submitted via: CD2WAV32(EN) R3.17
#
DISCID=2c050105
DTITLE=SENS - Hito to Toki to Kaze no naka he
DYEAR=1900
DGENRE=
TTITLE0=Hito Tsuki Kaze
TTITLE1=Youkou
TTITLE2=Shounen
TTITLE3=Tsuioku
TTITLE4=Hito Tsuki Kaze epilogue
EXTD=
EXTT0=
EXTT1=
EXTT2=
EXTT3=
EXTT4=
PLAYORDER=
